<?xml version="1.0" encoding="UTF-8"?>
<!DOCTYPE svg PUBLIC "-//W3C//DTD SVG 1.1//EN" "http://www.w3.org/Graphics/SVG/1.1/DTD/svg11.dtd">
<svg xmlns="http://www.w3.org/2000/svg" version="1.1" width="84px" height="71px" style="shape-rendering:geometricPrecision; text-rendering:geometricPrecision; image-rendering:optimizeQuality; fill-rule:evenodd; clip-rule:evenodd" xmlns:xlink="http://www.w3.org/1999/xlink">
<g><path style="opacity:0.325" fill="#c9dded" d="M 43.5,10.5 C 47.3112,9.35472 51.3112,9.18806 55.5,10C 57.6526,10.0995 59.3192,10.9328 60.5,12.5C 55.6354,10.9591 50.6354,10.2924 45.5,10.5C 44.8333,10.5 44.1667,10.5 43.5,10.5 Z"/></g>
<g><path style="opacity:1" fill="#297dc2" d="M 45.5,10.5 C 50.6354,10.2924 55.6354,10.9591 60.5,12.5C 62.153,12.6596 63.4863,13.3263 64.5,14.5C 61.9223,15.2541 59.2556,15.2541 56.5,14.5C 54.0846,13.6948 51.7513,12.6948 49.5,11.5C 47.901,11.7678 46.5676,11.4345 45.5,10.5 Z"/></g>
<g><path style="opacity:1" fill="#2c89c9" d="M 43.5,10.5 C 44.1667,10.5 44.8333,10.5 45.5,10.5C 46.5676,11.4345 47.901,11.7678 49.5,11.5C 49.0825,12.2216 48.4158,12.7216 47.5,13C 48.9423,13.3768 49.9423,14.2101 50.5,15.5C 45.4889,15.6659 40.4889,15.4993 35.5,15C 36.3805,14.2917 37.0472,13.4584 37.5,12.5C 39.2143,11.2616 41.2143,10.595 43.5,10.5 Z"/></g>
<g><path style="opacity:1" fill="#1580c5" d="M 49.5,11.5 C 51.7513,12.6948 54.0846,13.6948 56.5,14.5C 57.911,16.539 59.911,17.539 62.5,17.5C 62.2729,19.9328 63.2729,21.5994 65.5,22.5C 66.087,23.7666 66.087,24.7666 65.5,25.5C 61.9288,19.8903 56.9288,16.557 50.5,15.5C 49.9423,14.2101 48.9423,13.3768 47.5,13C 48.4158,12.7216 49.0825,12.2216 49.5,11.5 Z"/></g>
<g><path style="opacity:1" fill="#539dd2" d="M 37.5,12.5 C 37.0472,13.4584 36.3805,14.2917 35.5,15C 40.4889,15.4993 45.4889,15.6659 50.5,15.5C 52.7623,16.8234 55.0956,18.1568 57.5,19.5C 59.8121,21.299 61.1454,23.6323 61.5,26.5C 59.8089,25.1363 58.1423,23.803 56.5,22.5C 55.4206,20.457 53.754,19.1237 51.5,18.5C 49.7103,17.0027 47.5437,16.336 45,16.5C 40.0912,16.6827 35.5912,18.016 31.5,20.5C 32.1738,18.9755 33.1738,17.6422 34.5,16.5C 29.544,15.5059 24.544,15.1725 19.5,15.5C 25.5518,15.0264 31.5518,14.0264 37.5,12.5 Z"/></g>
<g><path style="opacity:1" fill="#328bca" d="M 50.5,15.5 C 56.9288,16.557 61.9288,19.8903 65.5,25.5C 66.087,24.7666 66.087,23.7666 65.5,22.5C 65.4346,22.0618 65.6012,21.7284 66,21.5C 67.1096,23.0368 68.6096,23.7035 70.5,23.5C 70.5,23.8333 70.5,24.1667 70.5,24.5C 68.9505,25.4408 67.2838,26.1075 65.5,26.5C 64.1667,26.8333 62.8333,27.1667 61.5,27.5C 61.5,27.1667 61.5,26.8333 61.5,26.5C 61.1454,23.6323 59.8121,21.299 57.5,19.5C 55.0956,18.1568 52.7623,16.8234 50.5,15.5 Z"/></g>
<g><path style="opacity:1" fill="#feb847" d="M 11.5,15.5 C 12.5,15.5 13.5,15.5 14.5,15.5C 15.2751,17.6119 15.2751,19.6119 14.5,21.5C 12.8716,22.8528 11.5383,22.5195 10.5,20.5C 10.366,18.7085 10.6993,17.0418 11.5,15.5 Z"/></g>
<g><path style="opacity:1" fill="#1791ce" d="M 51.5,18.5 C 45.1394,16.9182 39.1394,17.9182 33.5,21.5C 31.6381,23.4748 29.6381,23.8081 27.5,22.5C 27.5,22.1667 27.5,21.8333 27.5,21.5C 28.8333,21.1667 30.1667,20.8333 31.5,20.5C 35.5912,18.016 40.0912,16.6827 45,16.5C 47.5437,16.336 49.7103,17.0027 51.5,18.5 Z"/></g>
<g><path style="opacity:0.867" fill="#fce0aa" d="M 11.5,15.5 C 13.9938,13.9231 15.8271,14.5897 17,17.5C 17.4169,16.244 18.2502,15.5774 19.5,15.5C 18.6993,17.0418 18.366,18.7085 18.5,20.5C 17.8826,20.3893 17.3826,20.056 17,19.5C 16.5831,20.756 15.7498,21.4226 14.5,21.5C 15.2751,19.6119 15.2751,17.6119 14.5,15.5C 13.5,15.5 12.5,15.5 11.5,15.5 Z"/></g>
<g><path style="opacity:1" fill="#1e7dc2" d="M 19.5,15.5 C 24.544,15.1725 29.544,15.5059 34.5,16.5C 33.1738,17.6422 32.1738,18.9755 31.5,20.5C 30.1667,20.8333 28.8333,21.1667 27.5,21.5C 25.1667,21.5 22.8333,21.5 20.5,21.5C 19.5084,21.6716 18.8417,21.3382 18.5,20.5C 18.366,18.7085 18.6993,17.0418 19.5,15.5 Z"/></g>
<g><path style="opacity:1" fill="#2b9cd4" d="M 51.5,18.5 C 53.754,19.1237 55.4206,20.457 56.5,22.5C 55.209,22.7373 54.209,22.404 53.5,21.5C 48.9848,20.1876 44.3181,20.1876 39.5,21.5C 39.7093,22.086 40.0426,22.586 40.5,23C 39.2068,23.49 37.8734,23.6567 36.5,23.5C 36.5,24.5 36.5,25.5 36.5,26.5C 35.448,26.3505 34.448,26.5172 33.5,27C 32.4677,28.6268 31.1344,29.7934 29.5,30.5C 30.1667,29.1667 30.8333,27.8333 31.5,26.5C 32.5025,24.9891 33.1692,23.3224 33.5,21.5C 39.1394,17.9182 45.1394,16.9182 51.5,18.5 Z"/></g>
<g><path style="opacity:1" fill="#92b3d8" d="M 64.5,14.5 C 68.1529,16.1529 70.8196,18.8196 72.5,22.5C 72.2528,23.7133 71.5862,24.38 70.5,24.5C 70.5,24.1667 70.5,23.8333 70.5,23.5C 71.525,23.1034 71.6917,22.4368 71,21.5C 69.8989,19.6061 68.5655,18.9394 67,19.5C 66.6339,17.5483 65.8005,15.8816 64.5,14.5 Z"/></g>
<g><path style="opacity:0.494" fill="#faddba" d="M 11.5,15.5 C 10.6993,17.0418 10.366,18.7085 10.5,20.5C 7.88618,18.399 8.21951,16.7324 11.5,15.5 Z"/></g>
<g><path style="opacity:1" fill="#0d75be" d="M 56.5,14.5 C 59.2556,15.2541 61.9223,15.2541 64.5,14.5C 65.8005,15.8816 66.6339,17.5483 67,19.5C 68.5655,18.9394 69.8989,19.6061 71,21.5C 71.6917,22.4368 71.525,23.1034 70.5,23.5C 68.6096,23.7035 67.1096,23.0368 66,21.5C 65.6012,21.7284 65.4346,22.0618 65.5,22.5C 63.2729,21.5994 62.2729,19.9328 62.5,17.5C 59.911,17.539 57.911,16.539 56.5,14.5 Z"/></g>
<g><path style="opacity:0.996" fill="#97c9e8" d="M 53.5,21.5 C 46.3178,20.5509 40.6512,22.8843 36.5,28.5C 36.5,27.8333 36.5,27.1667 36.5,26.5C 36.5,25.5 36.5,24.5 36.5,23.5C 37.8734,23.6567 39.2068,23.49 40.5,23C 40.0426,22.586 39.7093,22.086 39.5,21.5C 44.3181,20.1876 48.9848,20.1876 53.5,21.5 Z"/></g>
<g><path style="opacity:0.026" fill="#f4f8fb" d="M 20.5,21.5 C 22.8333,21.5 25.1667,21.5 27.5,21.5C 27.5,21.8333 27.5,22.1667 27.5,22.5C 26.8333,23.1667 26.1667,23.8333 25.5,24.5C 24.1979,22.9724 22.5313,21.9724 20.5,21.5 Z"/></g>
<g><path style="opacity:1" fill="#3398d1" d="M 33.5,21.5 C 33.1692,23.3224 32.5025,24.9891 31.5,26.5C 29.6159,26.7118 28.2826,27.7118 27.5,29.5C 26.52,32.0865 26.1866,34.7531 26.5,37.5C 25.6829,35.0314 25.1829,32.3647 25,29.5C 24.79,31.0581 24.29,32.3915 23.5,33.5C 23.5,32.8333 23.5,32.1667 23.5,31.5C 23.4095,28.8478 24.0762,26.5145 25.5,24.5C 26.1667,23.8333 26.8333,23.1667 27.5,22.5C 29.6381,23.8081 31.6381,23.4748 33.5,21.5 Z"/></g>
<g><path style="opacity:0.008" fill="#eff5f9" d="M 65.5,26.5 C 64.4617,28.5195 63.1284,28.8528 61.5,27.5C 62.8333,27.1667 64.1667,26.8333 65.5,26.5 Z"/></g>
<g><path style="opacity:1" fill="#2ba9db" d="M 36.5,26.5 C 36.5,27.1667 36.5,27.8333 36.5,28.5C 35.8826,28.6107 35.3826,28.944 35,29.5C 34.5012,33.4862 34.3345,37.4862 34.5,41.5C 33.2921,40.7659 31.9587,40.4326 30.5,40.5C 29.7929,37.2139 29.4595,33.8806 29.5,30.5C 31.1344,29.7934 32.4677,28.6268 33.5,27C 34.448,26.5172 35.448,26.3505 36.5,26.5 Z"/></g>
<g><path style="opacity:0.031" fill="#f7fafb" d="M 23.5,31.5 C 23.5,32.1667 23.5,32.8333 23.5,33.5C 20.8333,33.5 18.1667,33.5 15.5,33.5C 18.0529,32.7451 20.7196,32.0784 23.5,31.5 Z"/></g>
<g><path style="opacity:0.071" fill="#fef6e5" d="M 47.5,33.5 C 56.6575,32.3424 65.9908,32.1757 75.5,33C 76.0219,33.5613 76.3552,34.228 76.5,35C 75.9646,37.9956 75.2979,40.8289 74.5,43.5C 74.5,43.1667 74.5,42.8333 74.5,42.5C 74.5,39.5 74.5,36.5 74.5,33.5C 65.5,33.5 56.5,33.5 47.5,33.5 Z"/></g>
<g><path style="opacity:0.631" fill="#fde0b4" d="M 10.5,34.5 C 8.3792,34.3253 6.3792,34.6586 4.5,35.5C 6.01268,32.0728 8.01268,31.7394 10.5,34.5 Z"/></g>
<g><path style="opacity:1" fill="#4296ce" d="M 26.5,37.5 C 26.5,38.5 26.5,39.5 26.5,40.5C 26.44,41.0431 26.1067,41.3764 25.5,41.5C 24.4763,40.1468 23.143,39.4802 21.5,39.5C 21.5,37.8333 21.5,36.1667 21.5,34.5C 19.1432,34.3367 16.8098,34.5034 14.5,35C 13.2721,36.4902 13.2721,37.9902 14.5,39.5C 13.3509,39.2089 12.6842,38.3756 12.5,37C 12.2776,34.7253 13.2776,33.5587 15.5,33.5C 18.1667,33.5 20.8333,33.5 23.5,33.5C 24.29,32.3915 24.79,31.0581 25,29.5C 25.1829,32.3647 25.6829,35.0314 26.5,37.5 Z"/></g>
<g><path style="opacity:1" fill="#fb9d23" d="M 46.5,34.5 C 48.8333,34.5 51.1667,34.5 53.5,34.5C 53.5,36.8333 53.5,39.1667 53.5,41.5C 51.5,41.5 49.5,41.5 47.5,41.5C 45.7202,40.0101 45.0535,38.0101 45.5,35.5C 45.5,34.8333 45.8333,34.5 46.5,34.5 Z"/></g>
<g><path style="opacity:1" fill="#fca726" d="M 53.5,34.5 C 55.5,34.5 57.5,34.5 59.5,34.5C 58.1667,36.8333 58.1667,39.1667 59.5,41.5C 55.7016,42.4834 51.7016,42.8168 47.5,42.5C 47.5,42.1667 47.5,41.8333 47.5,41.5C 49.5,41.5 51.5,41.5 53.5,41.5C 53.5,39.1667 53.5,36.8333 53.5,34.5 Z"/></g>
<g><path style="opacity:1" fill="#fdb627" d="M 59.5,34.5 C 61.8568,34.3367 64.1902,34.5034 66.5,35C 67.8333,37 67.8333,39 66.5,41C 64.1902,41.4966 61.8568,41.6633 59.5,41.5C 58.1667,39.1667 58.1667,36.8333 59.5,34.5 Z"/></g>
<g><path style="opacity:1" fill="#ffb545" d="M 10.5,34.5 C 11.1667,38.5 9.5,40.1667 5.5,39.5C 3.48052,38.4617 3.14719,37.1284 4.5,35.5C 6.3792,34.6586 8.3792,34.3253 10.5,34.5 Z"/></g>
<g><path style="opacity:1" fill="#fdc54e" d="M 46.5,34.5 C 46.5,33.8333 46.8333,33.5 47.5,33.5C 56.5,33.5 65.5,33.5 74.5,33.5C 74.5,36.5 74.5,39.5 74.5,42.5C 70.2984,42.1832 66.2984,42.5166 62.5,43.5C 62.1667,43.5 61.8333,43.5 61.5,43.5C 56.6367,43.8195 51.97,43.4861 47.5,42.5C 51.7016,42.8168 55.7016,42.4834 59.5,41.5C 61.8568,41.6633 64.1902,41.4966 66.5,41C 67.8333,39 67.8333,37 66.5,35C 64.1902,34.5034 61.8568,34.3367 59.5,34.5C 57.5,34.5 55.5,34.5 53.5,34.5C 51.1667,34.5 48.8333,34.5 46.5,34.5 Z"/></g>
<g><path style="opacity:1" fill="#1177bf" d="M 21.5,39.5 C 19.1667,39.5 16.8333,39.5 14.5,39.5C 13.2721,37.9902 13.2721,36.4902 14.5,35C 16.8098,34.5034 19.1432,34.3367 21.5,34.5C 21.5,36.1667 21.5,37.8333 21.5,39.5 Z"/></g>
<g><path style="opacity:0.412" fill="#fce2c6" d="M 45.5,35.5 C 45.0535,38.0101 45.7202,40.0101 47.5,41.5C 47.5,41.8333 47.5,42.1667 47.5,42.5C 46.5041,42.5858 45.6708,42.2524 45,41.5C 44.2109,39.2884 44.3775,37.2884 45.5,35.5 Z"/></g>
<g><path style="opacity:0.004" fill="#fdefd1" d="M 10.5,34.5 C 12.5,39.8333 10.8333,41.5 5.5,39.5C 9.5,40.1667 11.1667,38.5 10.5,34.5 Z"/></g>
<g><path style="opacity:1" fill="#73afda" d="M 14.5,39.5 C 16.8333,39.5 19.1667,39.5 21.5,39.5C 23.143,39.4802 24.4763,40.1468 25.5,41.5C 26.1067,41.3764 26.44,41.0431 26.5,40.5C 28.0075,42.1815 29.0075,44.1815 29.5,46.5C 28.5416,46.0472 27.7083,45.3805 27,44.5C 26.992,46.8212 27.8253,48.8212 29.5,50.5C 27.3926,51.4682 25.0593,51.8016 22.5,51.5C 23.9516,50.6981 25.6183,50.1981 27.5,50C 25.4672,47.1041 24.1338,43.9374 23.5,40.5C 20.2869,40.81 17.2869,40.4767 14.5,39.5 Z"/></g>
<g><path style="opacity:1" fill="#249ad2" d="M 31.5,26.5 C 30.8333,27.8333 30.1667,29.1667 29.5,30.5C 26.8494,43.1623 31.8494,49.4956 44.5,49.5C 47.1667,49.5 49.8333,49.5 52.5,49.5C 48.6804,52.3229 44.3471,53.1562 39.5,52C 35.9518,50.396 32.6184,48.5626 29.5,46.5C 29.0075,44.1815 28.0075,42.1815 26.5,40.5C 26.5,39.5 26.5,38.5 26.5,37.5C 26.1866,34.7531 26.52,32.0865 27.5,29.5C 28.2826,27.7118 29.6159,26.7118 31.5,26.5 Z"/></g>
<g><path style="opacity:1" fill="#a1d3eb" d="M 36.5,28.5 C 34.9224,33.7021 35.2558,38.7021 37.5,43.5C 36.5041,43.4142 35.6708,43.7476 35,44.5C 34.5172,43.552 34.3505,42.552 34.5,41.5C 34.3345,37.4862 34.5012,33.4862 35,29.5C 35.3826,28.944 35.8826,28.6107 36.5,28.5 Z"/></g>
<g><path style="opacity:1" fill="#37a4d8" d="M 29.5,30.5 C 29.4595,33.8806 29.7929,37.2139 30.5,40.5C 31.9587,40.4326 33.2921,40.7659 34.5,41.5C 34.3505,42.552 34.5172,43.552 35,44.5C 35.6708,43.7476 36.5041,43.4142 37.5,43.5C 39.5549,45.5547 41.8883,47.2213 44.5,48.5C 44.5,48.8333 44.5,49.1667 44.5,49.5C 31.8494,49.4956 26.8494,43.1623 29.5,30.5 Z"/></g>
<g><path style="opacity:1" fill="#3686c0" d="M 74.5,42.5 C 74.5,42.8333 74.5,43.1667 74.5,43.5C 74.6716,44.4916 74.3382,45.1583 73.5,45.5C 73.0296,44.3065 72.0296,43.6399 70.5,43.5C 69.5,43.6667 68.5,43.8333 67.5,44C 66.1379,46.0344 65.1379,48.2011 64.5,50.5C 63.8333,50.5 63.1667,50.5 62.5,50.5C 62.5,49.5 62.5,48.5 62.5,47.5C 62.5,46.1667 62.5,44.8333 62.5,43.5C 66.2984,42.5166 70.2984,42.1832 74.5,42.5 Z"/></g>
<g><path style="opacity:1" fill="#1d78c0" d="M 73.5,45.5 C 72.3263,46.5137 71.6596,47.847 71.5,49.5C 71.5,50.1667 71.1667,50.5 70.5,50.5C 70.1667,50.5 69.8333,50.5 69.5,50.5C 67.9991,48.0428 66.3324,48.0428 64.5,50.5C 65.1379,48.2011 66.1379,46.0344 67.5,44C 68.5,43.8333 69.5,43.6667 70.5,43.5C 72.0296,43.6399 73.0296,44.3065 73.5,45.5 Z"/></g>
<g><path style="opacity:0.004" fill="#dbe6f1" d="M 73.5,45.5 C 73.7709,47.3797 73.1042,48.713 71.5,49.5C 71.6596,47.847 72.3263,46.5137 73.5,45.5 Z"/></g>
<g><path style="opacity:0.007" fill="#d7e8f4" d="M 61.5,44.5 C 59.8073,47.6818 57.1407,49.3484 53.5,49.5C 53.1667,49.5 52.8333,49.5 52.5,49.5C 49.8333,49.5 47.1667,49.5 44.5,49.5C 44.5,49.1667 44.5,48.8333 44.5,48.5C 48.1817,48.6653 51.8484,48.4986 55.5,48C 57.4048,46.5787 59.4048,45.412 61.5,44.5 Z"/></g>
<g><path style="opacity:0.424" fill="#fce4bd" d="M 18.5,51.5 C 16.7085,51.366 15.0418,51.6993 13.5,52.5C 15.0418,51.6993 16.7085,51.366 18.5,51.5 Z"/></g>
<g><path style="opacity:0.999" fill="#739cd0" d="M 69.5,50.5 C 69.8333,50.5 70.1667,50.5 70.5,50.5C 67.5888,55.3899 63.2555,58.3899 57.5,59.5C 57.5,59.1667 57.5,58.8333 57.5,58.5C 60.4361,55.7484 63.6028,53.0818 67,50.5C 67.7051,52.9856 68.5384,52.9856 69.5,50.5 Z"/></g>
<g><path style="opacity:1" fill="#fcb836" d="M 18.5,51.5 C 19.1667,51.5 19.5,51.8333 19.5,52.5C 19.6085,54.5138 18.9418,56.1805 17.5,57.5C 16.8333,57.5 16.1667,57.5 15.5,57.5C 14.0582,56.1805 13.3915,54.5138 13.5,52.5C 15.0418,51.6993 16.7085,51.366 18.5,51.5 Z"/></g>
<g><path style="opacity:1" fill="#158ecc" d="M 29.5,46.5 C 32.6184,48.5626 35.9518,50.396 39.5,52C 44.3471,53.1562 48.6804,52.3229 52.5,49.5C 52.8333,49.5 53.1667,49.5 53.5,49.5C 53.5858,50.4959 53.2524,51.3292 52.5,52C 49.4289,53.2957 46.4289,54.4623 43.5,55.5C 38.3876,55.0928 33.7209,53.4261 29.5,50.5C 27.8253,48.8212 26.992,46.8212 27,44.5C 27.7083,45.3805 28.5416,46.0472 29.5,46.5 Z"/></g>
<g><path style="opacity:0.251" fill="#fbe5c8" d="M 13.5,52.5 C 13.3915,54.5138 14.0582,56.1805 15.5,57.5C 14.5041,57.5858 13.6708,57.2524 13,56.5C 12.235,54.9343 12.4017,53.6009 13.5,52.5 Z"/></g>
<g><path style="opacity:1" fill="#148aca" d="M 61.5,43.5 C 61.8333,43.5 62.1667,43.5 62.5,43.5C 62.5,44.8333 62.5,46.1667 62.5,47.5C 60.0316,48.5205 58.365,50.3538 57.5,53C 55.9751,54.0086 54.3084,54.5086 52.5,54.5C 49.5701,55.299 46.5701,55.6323 43.5,55.5C 46.4289,54.4623 49.4289,53.2957 52.5,52C 53.2524,51.3292 53.5858,50.4959 53.5,49.5C 57.1407,49.3484 59.8073,47.6818 61.5,44.5C 61.5,44.1667 61.5,43.8333 61.5,43.5 Z"/></g>
<g><path style="opacity:0.004" fill="#f9f6ed" d="M 19.5,52.5 C 20.1667,52.5 20.8333,52.5 21.5,52.5C 21.5,53.5 21.5,54.5 21.5,55.5C 20.3951,56.6005 19.0618,57.2671 17.5,57.5C 18.9418,56.1805 19.6085,54.5138 19.5,52.5 Z"/></g>
<g><path style="opacity:1" fill="#157fc4" d="M 62.5,47.5 C 62.5,48.5 62.5,49.5 62.5,50.5C 59.8937,53.8088 56.5604,56.1422 52.5,57.5C 54.0453,58.4519 55.712,58.7852 57.5,58.5C 57.5,58.8333 57.5,59.1667 57.5,59.5C 57.1667,59.5 56.8333,59.5 56.5,59.5C 52.1667,59.5 47.8333,59.5 43.5,59.5C 44.2625,58.7321 45.2625,58.2321 46.5,58C 46.1667,57.6667 45.8333,57.3333 45.5,57C 47.5,56.6667 49.5,56.3333 51.5,56C 52.056,55.6174 52.3893,55.1174 52.5,54.5C 54.3084,54.5086 55.9751,54.0086 57.5,53C 58.365,50.3538 60.0316,48.5205 62.5,47.5 Z"/></g>
<g><path style="opacity:0.686" fill="#80b2d8" d="M 21.5,55.5 C 26.7516,56.2849 32.0849,56.7849 37.5,57C 39.0664,57.6082 40.3998,58.4415 41.5,59.5C 34.5582,58.3999 27.8915,57.0666 21.5,55.5 Z"/></g>
<g><path style="opacity:0.999" fill="#147fc4" d="M 29.5,50.5 C 33.7209,53.4261 38.3876,55.0928 43.5,55.5C 46.5701,55.6323 49.5701,55.299 52.5,54.5C 52.3893,55.1174 52.056,55.6174 51.5,56C 49.5,56.3333 47.5,56.6667 45.5,57C 45.8333,57.3333 46.1667,57.6667 46.5,58C 45.2625,58.2321 44.2625,58.7321 43.5,59.5C 42.8333,59.5 42.1667,59.5 41.5,59.5C 40.3998,58.4415 39.0664,57.6082 37.5,57C 32.0849,56.7849 26.7516,56.2849 21.5,55.5C 21.5,54.5 21.5,53.5 21.5,52.5C 21.5,51.8333 21.8333,51.5 22.5,51.5C 25.0593,51.8016 27.3926,51.4682 29.5,50.5 Z"/></g>
<g><path style="opacity:1" fill="#0f77c0" d="M 69.5,50.5 C 68.5384,52.9856 67.7051,52.9856 67,50.5C 63.6028,53.0818 60.4361,55.7484 57.5,58.5C 55.712,58.7852 54.0453,58.4519 52.5,57.5C 56.5604,56.1422 59.8937,53.8088 62.5,50.5C 63.1667,50.5 63.8333,50.5 64.5,50.5C 66.3324,48.0428 67.9991,48.0428 69.5,50.5 Z"/></g>
<g><path style="opacity:0.847" fill="#96badd" d="M 41.5,59.5 C 42.1667,59.5 42.8333,59.5 43.5,59.5C 47.8333,59.5 52.1667,59.5 56.5,59.5C 51.5132,62.0597 46.5132,62.0597 41.5,59.5 Z"/></g>
</svg>
